<svg width="35" height="32" viewBox="0 0 35 32" fill="none" xmlns="http://www.w3.org/2000/svg">
<path d="M4.27274 12H29.9091M9.96971 4V6.66667M24.2121 4V6.66667M8.54546 16H11.3939M15.6667 16H18.5152M22.7879 16H25.6364M8.54546 20H11.3939M15.6667 20H18.5152M22.7879 20H25.6364M8.54546 24H11.3939M15.6667 24H18.5152M22.7879 24H25.6364M8.83031 28H25.3515C26.9468 28 27.7445 28 28.3538 27.7093C28.8898 27.4537 29.3256 27.0457 29.5986 26.544C29.9091 25.9736 29.9091 25.2268 29.9091 23.7333V10.9333C29.9091 9.43985 29.9091 8.69312 29.5986 8.12269C29.3256 7.62092 28.8898 7.21297 28.3538 6.95732C27.7445 6.66667 26.9468 6.66667 25.3515 6.66667H8.83031C7.23502 6.66667 6.43736 6.66667 5.82804 6.95732C5.29205 7.21297 4.85629 7.62092 4.58321 8.12269C4.27274 8.69312 4.27274 9.43985 4.27274 10.9333V23.7333C4.27274 25.2268 4.27274 25.9736 4.58321 26.544C4.85629 27.0457 5.29205 27.4537 5.82804 27.7093C6.43736 28 7.235 28 8.83031 28Z" stroke="#03228C" stroke-width="2.66667" stroke-linecap="round"/>
</svg>
