<svg width="32" height="32" viewBox="0 0 32 32" fill="none" xmlns="http://www.w3.org/2000/svg">
<path d="M6.66667 29.3333H25.3333C26.804 29.3333 28 28.1373 28 26.6667V6.66667C28 5.196 26.804 4.00001 25.3333 4.00001H22.6667C22.6667 3.64638 22.5262 3.30724 22.2761 3.0572C22.0261 2.80715 21.687 2.66667 21.3333 2.66667H10.6667C10.313 2.66667 9.97391 2.80715 9.72386 3.0572C9.47381 3.30724 9.33333 3.64638 9.33333 4.00001H6.66667C5.196 4.00001 4 5.196 4 6.66667V26.6667C4 28.1373 5.196 29.3333 6.66667 29.3333ZM6.66667 6.66667H9.33333V9.33334H22.6667V6.66667H25.3333V26.6667H6.66667V6.66667Z" fill="#03228C"/>
<path d="M14.6667 18.1147L12.276 15.724L10.3907 17.6093L14.6667 21.8853L21.6094 14.9427L19.724 13.0573L14.6667 18.1147Z" fill="#03228C"/>
</svg>
