<svg width="32" height="32" viewBox="0 0 32 32" fill="none" xmlns="http://www.w3.org/2000/svg">
<path d="M25 7H23.82C23.6137 6.41645 23.2319 5.911 22.7271 5.55294C22.2222 5.19488 21.6189 5.00174 21 5H20C20 4.20435 19.6839 3.44129 19.1213 2.87868C18.5587 2.31607 17.7956 2 17 2H15C14.2044 2 13.4413 2.31607 12.8787 2.87868C12.3161 3.44129 12 4.20435 12 5H11C10.3811 5.00174 9.7778 5.19488 9.27293 5.55294C8.76807 5.911 8.38631 6.41645 8.18 7H7C6.46957 7 5.96086 7.21071 5.58579 7.58579C5.21071 7.96086 5 8.46957 5 9V28C5 28.5304 5.21071 29.0391 5.58579 29.4142C5.96086 29.7893 6.46957 30 7 30H25C25.5304 30 26.0391 29.7893 26.4142 29.4142C26.7893 29.0391 27 28.5304 27 28V9C27 8.46957 26.7893 7.96086 26.4142 7.58579C26.0391 7.21071 25.5304 7 25 7ZM11 7H12C12.5304 7 13.0391 6.78929 13.4142 6.41421C13.7893 6.03914 14 5.53043 14 5C14 4.73478 14.1054 4.48043 14.2929 4.29289C14.4804 4.10536 14.7348 4 15 4H17C17.2652 4 17.5196 4.10536 17.7071 4.29289C17.8946 4.48043 18 4.73478 18 5C18 5.53043 18.2107 6.03914 18.5858 6.41421C18.9609 6.78929 19.4696 7 20 7H21C21.2652 7 21.5196 7.10536 21.7071 7.29289C21.8946 7.48043 22 7.73478 22 8V9H10V8C10 7.73478 10.1054 7.48043 10.2929 7.29289C10.4804 7.10536 10.7348 7 11 7ZM25 28H7V9H8C8 9.53043 8.21071 10.0391 8.58579 10.4142C8.96086 10.7893 9.46957 11 10 11H22C22.5304 11 23.0391 10.7893 23.4142 10.4142C23.7893 10.0391 24 9.53043 24 9H25V28Z" fill="#03228C"/>
<path d="M22 13H10C9.73478 13 9.48043 13.1054 9.29289 13.2929C9.10536 13.4804 9 13.7348 9 14C9 14.2652 9.10536 14.5196 9.29289 14.7071C9.48043 14.8946 9.73478 15 10 15H22C22.2652 15 22.5196 14.8946 22.7071 14.7071C22.8946 14.5196 23 14.2652 23 14C23 13.7348 22.8946 13.4804 22.7071 13.2929C22.5196 13.1054 22.2652 13 22 13Z" fill="#03228C"/>
<path d="M22 18H10C9.73478 18 9.48043 18.1054 9.29289 18.2929C9.10536 18.4804 9 18.7348 9 19C9 19.2652 9.10536 19.5196 9.29289 19.7071C9.48043 19.8946 9.73478 20 10 20H22C22.2652 20 22.5196 19.8946 22.7071 19.7071C22.8946 19.5196 23 19.2652 23 19C23 18.7348 22.8946 18.4804 22.7071 18.2929C22.5196 18.1054 22.2652 18 22 18Z" fill="#03228C"/>
<path d="M16 23H10C9.73478 23 9.48043 23.1054 9.29289 23.2929C9.10536 23.4804 9 23.7348 9 24C9 24.2652 9.10536 24.5196 9.29289 24.7071C9.48043 24.8946 9.73478 25 10 25H16C16.2652 25 16.5196 24.8946 16.7071 24.7071C16.8946 24.5196 17 24.2652 17 24C17 23.7348 16.8946 23.4804 16.7071 23.2929C16.5196 23.1054 16.2652 23 16 23Z" fill="#03228C"/>
<path d="M15.29 6.71C15.3834 6.80268 15.4943 6.87601 15.6161 6.92577C15.7379 6.97554 15.8684 7.00076 16 7H16.19C16.2562 6.99073 16.3205 6.97045 16.38 6.94C16.4414 6.92003 16.4989 6.88958 16.55 6.85L16.71 6.73C16.801 6.6349 16.8724 6.52275 16.92 6.4C16.9739 6.27358 17.0011 6.13741 17 6C17.0049 5.93342 17.0049 5.86658 17 5.8C16.9891 5.73735 16.9688 5.67669 16.94 5.62C16.9181 5.55628 16.8878 5.49575 16.85 5.44L16.73 5.29C16.637 5.19627 16.5264 5.12188 16.4046 5.07111C16.2827 5.02034 16.152 4.9942 16.02 4.9942C15.888 4.9942 15.7573 5.02034 15.6354 5.07111C15.5136 5.12188 15.403 5.19627 15.31 5.29C15.2137 5.38178 15.1367 5.49185 15.0835 5.61376C15.0302 5.73567 15.0018 5.86698 15 6C15.0016 6.13068 15.0288 6.25978 15.08 6.38C15.1276 6.50275 15.199 6.6149 15.29 6.71Z" fill="#03228C"/>
</svg>
