<svg width="32" height="32" viewBox="0 0 32 32" fill="none" xmlns="http://www.w3.org/2000/svg">
<path d="M17.6667 11.3333C17.1144 11.3333 16.6667 11.7811 16.6667 12.3333C16.6667 12.8856 17.1144 13.3333 17.6667 13.3333H22.3334C22.8856 13.3333 23.3334 12.8856 23.3334 12.3333C23.3334 11.7811 22.8856 11.3333 22.3334 11.3333H17.6667Z" fill="#03228C"/>
<path d="M16.6668 19.6667C16.6668 19.1144 17.1144 18.6667 17.6668 18.6667H22.3332C22.8856 18.6667 23.3332 19.1144 23.3332 19.6667C23.3332 20.2189 22.8856 20.6667 22.3332 20.6667H17.6668C17.1144 20.6667 16.6668 20.2189 16.6668 19.6667Z" fill="#03228C"/>
<path d="M14.3738 10.2929C14.7643 10.6834 14.7643 11.3166 14.3738 11.7071L11.7071 14.3737C11.3166 14.7643 10.6834 14.7643 10.2929 14.3737L8.95958 13.0404C8.56906 12.6499 8.56906 12.0167 8.95958 11.6262C9.3501 11.2357 9.98327 11.2357 10.3738 11.6262L11 12.2524L12.9596 10.2929C13.3502 9.90237 13.9832 9.90237 14.3738 10.2929Z" fill="#03228C"/>
<path d="M14.3738 19.0404C14.7643 18.6499 14.7643 18.0168 14.3738 17.6263C13.9832 17.2357 13.3502 17.2357 12.9596 17.6263L11 19.5857L10.3738 18.9596C9.98327 18.5691 9.3501 18.5691 8.95958 18.9596C8.56906 19.3501 8.56906 19.9832 8.95958 20.3737L10.2929 21.7071C10.6834 22.0976 11.3166 22.0976 11.7071 21.7071L14.3738 19.0404Z" fill="#03228C"/>
<path d="M7 4C5.34315 4 4 5.34315 4 7V25C4 26.6568 5.34315 28 7 28H25C26.6568 28 28 26.6568 28 25V7C28 5.34315 26.6568 4 25 4H7ZM6 7C6 6.44772 6.44772 6 7 6H25C25.5523 6 26 6.44772 26 7V25C26 25.5523 25.5523 26 25 26H7C6.44772 26 6 25.5523 6 25V7Z" fill="#03228C"/>
</svg>
